<?xml version="1.0" encoding="UTF-8"?>
<svg xmlns="http://www.w3.org/2000/svg" xmlns:xlink="http://www.w3.org/1999/xlink" width="32pt" height="32pt" viewBox="0 0 32 32" version="1.1">
<g id="surface1">
<path style=" stroke:none;fill-rule:nonzero;fill:#FF0000;fill-opacity:1;" d="M 6 3 L 6 10 L 8 10 L 8 5 L 24 5 L 24 10 L 26 10 L 26 3 Z M 9.5 12 C 8.117188 12 7 13.117188 7 14.5 L 7 17.5 C 7 18.882813 8.117188 20 9.5 20 C 10.882813 20 12 18.882813 12 17.5 L 12 17 L 10 17 L 10 17.5 C 10 17.714844 9.714844 18 9.5 18 C 9.285156 18 9 17.714844 9 17.5 L 9 14.5 C 9 14.285156 9.285156 14 9.5 14 C 9.714844 14 10 14.285156 10 14.5 L 10 15 L 12 15 L 12 14.5 C 12 13.117188 10.882813 12 9.5 12 Z M 15.5 12 C 14.117188 12 13 13.117188 13 14.5 C 13 15.882813 14.117188 17 15.5 17 C 15.714844 17 16 17.285156 16 17.5 C 16 17.800781 15.882813 18 15.5 18 C 15.132813 18 15.074219 17.921875 15.0625 17.90625 C 15.050781 17.890625 15 17.828125 15 17.59375 L 13 17.59375 C 13 18.160156 13.164063 18.796875 13.625 19.28125 C 14.085938 19.765625 14.769531 20 15.5 20 C 16.917969 20 18 18.800781 18 17.5 C 18 16.117188 16.882813 15 15.5 15 C 15.285156 15 15 14.714844 15 14.5 C 15 14.285156 15.285156 14 15.5 14 C 15.765625 14 15.847656 14.0625 15.90625 14.125 C 15.964844 14.1875 16 14.292969 16 14.40625 L 18 14.40625 C 18 13.816406 17.785156 13.214844 17.34375 12.75 C 16.902344 12.285156 16.234375 12 15.5 12 Z M 21.5 12 C 20.117188 12 19 13.117188 19 14.5 C 19 15.882813 20.117188 17 21.5 17 C 21.714844 17 22 17.285156 22 17.5 C 22 17.800781 21.882813 18 21.5 18 C 21.132813 18 21.074219 17.921875 21.0625 17.90625 C 21.050781 17.890625 21 17.828125 21 17.59375 L 19 17.59375 C 19 18.160156 19.164063 18.796875 19.625 19.28125 C 20.085938 19.765625 20.769531 20 21.5 20 C 22.917969 20 24 18.800781 24 17.5 C 24 16.117188 22.882813 15 21.5 15 C 21.285156 15 21 14.714844 21 14.5 C 21 14.285156 21.285156 14 21.5 14 C 21.765625 14 21.847656 14.0625 21.90625 14.125 C 21.964844 14.1875 22 14.292969 22 14.40625 L 24 14.40625 C 24 13.816406 23.785156 13.214844 23.34375 12.75 C 22.902344 12.285156 22.234375 12 21.5 12 Z M 6 22 L 6 29 L 26 29 L 26 22 L 24 22 L 24 27 L 8 27 L 8 22 Z "/>
</g>
</svg>
