<?xml version="1.0" encoding="UTF-8"?>
<svg xmlns="http://www.w3.org/2000/svg" xmlns:xlink="http://www.w3.org/1999/xlink" width="32pt" height="32pt" viewBox="0 0 32 32" version="1.1">
<g id="surface1">
<path style=" stroke:none;fill-rule:nonzero;fill:#FF0000;fill-opacity:1;" d="M 2 8 L 2 24 L 30 24 L 30 8 Z M 4 10 L 28 10 L 28 22 L 4 22 Z M 7 12 L 7 20 L 9 20 L 9 18 C 10.644531 18 12 16.644531 12 15 C 12 13.355469 10.644531 12 9 12 Z M 13 12 L 13 20 L 15 20 L 15 17 L 17 17 L 17 20 L 19 20 L 19 12 L 17 12 L 17 15 L 15 15 L 15 12 Z M 21 12 L 21 20 L 23 20 L 23 18 C 24.644531 18 26 16.644531 26 15 C 26 13.355469 24.644531 12 23 12 Z M 9 14 C 9.566406 14 10 14.433594 10 15 C 10 15.566406 9.566406 16 9 16 Z M 23 14 C 23.566406 14 24 14.433594 24 15 C 24 15.566406 23.566406 16 23 16 Z "/>
</g>
</svg>
